<?xml version="1.0" encoding="utf-8"?>
<!-- Generator: Adobe Illustrator 23.0.4, SVG Export Plug-In . SVG Version: 6.00 Build 0)  -->
<svg version="1.1" id="Calque_1" xmlns="http://www.w3.org/2000/svg" xmlns:xlink="http://www.w3.org/1999/xlink" x="0px" y="0px"
	 viewBox="0 0 405.4 410.9" style="enable-background:new 0 0 405.4 410.9;" xml:space="preserve">
<style type="text/css">
	.st0{fill:#FFFFFF;}
</style>
<g>
	<path class="st0" d="M354.7,40h-35.8V29.5c0-12.4-10.1-22.5-22.5-22.5s-22.5,10.1-22.5,22.5V40h-126V29.5
		c0-12.4-10.1-22.5-22.5-22.5s-22.5,10.1-22.5,22.5v10.8c-0.6-0.2-1.3-0.3-2-0.3H71c-20.7,0-37.5,16.8-37.5,37.5v127.8
		c0,4.1,3.4,7.5,7.5,7.5s7.5-3.4,7.5-7.5v-88h270.4c4.1,0,7.5-3.4,7.5-7.5s-3.4-7.5-7.5-7.5H48.5V77.5C48.5,65.1,58.6,55,71,55h29.9
		c0.7,0,1.4-0.1,2-0.3v9.7c0,12.4,10.1,22.5,22.5,22.5s22.5-10.1,22.5-22.5V55h126v9.4c0,12.4,10.1,22.5,22.5,22.5
		s22.5-10.1,22.5-22.5V55h35.8c12.4,0,22.5,10.1,22.5,22.5v285c0,7.4-6.1,13.5-13.5,13.5c-7.5,0-13.5-6.1-13.5-13.5v-19.4
		c0-4.1-3.4-7.5-7.5-7.5h-87.2c-4.1,0-7.5,3.4-7.5,7.5s3.4,7.5,7.5,7.5h79.7v11.9c0,4.9,1.2,9.5,3.4,13.5H36.7
		c-7.5,0-13.5-6-13.5-13.5v-11.9H191c4.1,0,7.5-3.4,7.5-7.5s-3.4-7.5-7.5-7.5h-74.9c13.1-11.3,21.4-28,21.4-46.6
		c0-33.9-27.6-61.5-61.5-61.5S14.5,255.1,14.5,289c0,18.6,8.3,35.3,21.4,46.6H15.7c-4.1,0-7.5,3.4-7.5,7.5v19.4
		C8.2,378.2,21,391,36.7,391h327c15.7,0,28.5-12.8,28.5-28.5v-285C392.2,56.9,375.4,40,354.7,40L354.7,40z M132.9,64.4
		c0,4.1-3.4,7.5-7.5,7.5s-7.5-3.4-7.5-7.5V29.5c0-4.1,3.4-7.5,7.5-7.5s7.5,3.4,7.5,7.5V64.4z M303.9,64.4c0,4.1-3.4,7.5-7.5,7.5
		s-7.5-3.4-7.5-7.5V29.5c0-4.1,3.4-7.5,7.5-7.5s7.5,3.4,7.5,7.5V64.4z M29.5,289c0-25.6,20.9-46.5,46.5-46.5s46.5,20.9,46.5,46.5
		s-20.9,46.5-46.5,46.5S29.5,314.7,29.5,289L29.5,289z"/>
	<path class="st0" d="M359.4,104.5c-1.4-1.4-3.3-2.2-5.3-2.2s-3.9,0.8-5.3,2.2c-1.4,1.4-2.2,3.3-2.2,5.3s0.8,3.9,2.2,5.3
		c1.4,1.4,3.3,2.2,5.3,2.2s3.9-0.8,5.3-2.2c1.4-1.4,2.2-3.3,2.2-5.3S360.8,105.9,359.4,104.5L359.4,104.5z"/>
	<path class="st0" d="M232.2,337.8c-1.4-1.4-3.3-2.2-5.3-2.2s-3.9,0.8-5.3,2.2s-2.2,3.3-2.2,5.3c0,2,0.8,3.9,2.2,5.3
		c1.4,1.4,3.3,2.2,5.3,2.2s3.9-0.8,5.3-2.2s2.2-3.3,2.2-5.3C234.4,341.2,233.6,339.2,232.2,337.8L232.2,337.8z"/>
	<path class="st0" d="M177.9,235c-15.7,0-28.5,12.8-28.5,28.5s12.8,28.5,28.5,28.5s28.5-12.8,28.5-28.5S193.6,235,177.9,235
		L177.9,235z M177.9,277c-7.4,0-13.5-6-13.5-13.5c0-7.4,6.1-13.5,13.5-13.5c7.4,0,13.5,6.1,13.5,13.5C191.4,271,185.3,277,177.9,277
		L177.9,277z"/>
	<path class="st0" d="M247.9,235c-15.7,0-28.5,12.8-28.5,28.5s12.8,28.5,28.5,28.5c15.7,0,28.5-12.8,28.5-28.5S263.6,235,247.9,235
		L247.9,235z M247.9,277c-7.4,0-13.5-6-13.5-13.5c0-7.4,6.1-13.5,13.5-13.5c7.4,0,13.5,6.1,13.5,13.5C261.4,271,255.3,277,247.9,277
		L247.9,277z"/>
	<path class="st0" d="M317.9,235c-15.7,0-28.5,12.8-28.5,28.5s12.8,28.5,28.5,28.5c15.7,0,28.5-12.8,28.5-28.5S333.6,235,317.9,235
		L317.9,235z M317.9,277c-7.4,0-13.5-6-13.5-13.5c0-7.4,6.1-13.5,13.5-13.5c7.5,0,13.5,6.1,13.5,13.5C331.4,271,325.3,277,317.9,277
		L317.9,277z"/>
	<path class="st0" d="M107.9,157c-15.7,0-28.5,12.8-28.5,28.5S92.2,214,107.9,214s28.5-12.8,28.5-28.5S123.6,157,107.9,157
		L107.9,157z M107.9,199c-7.4,0-13.5-6.1-13.5-13.5s6.1-13.5,13.5-13.5c7.4,0,13.5,6.1,13.5,13.5S115.3,199,107.9,199L107.9,199z"/>
	<path class="st0" d="M247.9,157c-15.7,0-28.5,12.8-28.5,28.5s12.8,28.5,28.5,28.5c15.7,0,28.5-12.8,28.5-28.5S263.6,157,247.9,157
		L247.9,157z M247.9,199c-7.4,0-13.5-6.1-13.5-13.5s6.1-13.5,13.5-13.5c7.4,0,13.5,6.1,13.5,13.5S255.3,199,247.9,199L247.9,199z"/>
	<path class="st0" d="M317.9,157c-15.7,0-28.5,12.8-28.5,28.5s12.8,28.5,28.5,28.5c15.7,0,28.5-12.8,28.5-28.5S333.6,157,317.9,157
		L317.9,157z M317.9,199c-7.4,0-13.5-6.1-13.5-13.5s6.1-13.5,13.5-13.5c7.5,0,13.5,6.1,13.5,13.5S325.3,199,317.9,199L317.9,199z"/>
	<path class="st0" d="M177.9,157c-15.7,0-28.5,12.8-28.5,28.5s12.8,28.5,28.5,28.5s28.5-12.8,28.5-28.5S193.6,157,177.9,157
		L177.9,157z M177.9,199c-7.4,0-13.5-6.1-13.5-13.5s6.1-13.5,13.5-13.5c7.4,0,13.5,6.1,13.5,13.5S185.3,199,177.9,199L177.9,199z"/>
	<path class="st0" d="M102.8,270.8c-2.9-2.9-7.7-2.9-10.6,0l-24.4,24.4l-8.3-8.4c-2.9-2.9-7.7-2.9-10.6,0s-2.9,7.7,0,10.6l13.7,13.6
		c1.4,1.4,3.3,2.2,5.3,2.2s3.9-0.8,5.3-2.2l29.7-29.7C105.7,278.4,105.7,273.7,102.8,270.8L102.8,270.8z"/>
</g>
</svg>
