<?xml version="1.0" encoding="utf-8"?>
<!-- Generator: Adobe Illustrator 23.0.6, SVG Export Plug-In . SVG Version: 6.00 Build 0)  -->
<svg version="1.1" id="Calque_1" xmlns="http://www.w3.org/2000/svg" xmlns:xlink="http://www.w3.org/1999/xlink" x="0px" y="0px"
	 viewBox="0 0 397.5 413.9" style="enable-background:new 0 0 397.5 413.9;" xml:space="preserve">
<style type="text/css">
	.st0{fill:#145A32;}
</style>
<g>
	<path class="st0" d="M237.1,366.2c-3.2,0.8-6.4,1.5-9.7,2.1c-8.4,1.6-14,9.7-12.5,18.1c0.8,4.2,3.1,7.6,6.3,9.9
		c3.3,2.3,7.5,3.4,11.8,2.6c3.8-0.7,7.7-1.6,11.5-2.5c8.3-2.1,13.4-10.5,11.3-18.8C253.9,369.2,245.4,364.2,237.1,366.2L237.1,366.2
		z"/>
	<path class="st0" d="M352.1,157.8c1.1,3.3,3.2,6,5.8,7.8c3.9,2.7,9,3.7,13.9,2.1c8.2-2.7,12.6-11.5,9.9-19.7
		c-1.2-3.7-2.6-7.4-4-11.1c-3.2-8-12.2-11.9-20.2-8.7c-8,3.2-11.9,12.2-8.7,20.2C349.9,151.5,351.1,154.7,352.1,157.8L352.1,157.8z"
		/>
	<path class="st0" d="M287.6,344c-2.7,1.8-5.6,3.6-8.4,5.2c-7.4,4.3-10,13.8-5.7,21.2c1.2,2,2.7,3.7,4.5,4.9
		c4.8,3.4,11.3,3.9,16.7,0.8c3.4-2,6.8-4,10-6.2c7.2-4.7,9.1-14.4,4.4-21.5S294.8,339.3,287.6,344L287.6,344z"/>
	<path class="st0" d="M391.3,201.2c-0.3-8.6-7.6-15.3-16.2-14.9c-8.6,0.3-15.3,7.6-14.9,16.1c0.1,3.3,0.2,6.6,0.1,9.9
		c-0.1,5.4,2.5,10.2,6.6,13.1c2.4,1.7,5.4,2.8,8.6,2.8c8.6,0.2,15.7-6.6,15.9-15.2C391.5,209.1,391.4,205.1,391.3,201.2L391.3,201.2
		z"/>
	<path class="st0" d="M349.5,303.1c-6.9-5.2-16.6-3.8-21.8,3.1c-2,2.6-4.1,5.2-6.2,7.7c-5.6,6.5-4.8,16.3,1.8,21.9
		c0.4,0.3,0.7,0.6,1.1,0.9c6.5,4.6,15.5,3.5,20.8-2.6c2.5-3,5-6.1,7.4-9.2C357.8,318,356.4,308.3,349.5,303.1L349.5,303.1z"/>
	<g>
		<path class="st0" d="M372.4,246.9c-8.2-2.6-16.9,2-19.5,10.2c-1,3.1-2.1,6.3-3.2,9.4c-2.6,6.8-0.1,14.2,5.6,18.2
			c1,0.7,2.2,1.4,3.4,1.8c8,3.1,17-1,20.1-9c1.4-3.7,2.7-7.4,3.9-11.1C385.2,258.2,380.6,249.5,372.4,246.9L372.4,246.9z"/>
		<path class="st0" d="M169.2,368.5c-13.9-2.5-27.2-6.7-39.9-12.7c-0.2-0.1-0.3-0.2-0.4-0.2c-3-1.4-6-2.9-8.8-4.5l0,0
			c-5.3-2.9-10.5-6.1-15.5-9.7c-73.2-51.5-90.7-153-39.2-226.1c11.2-15.9,24.8-29.2,39.9-39.7c0.2-0.1,0.4-0.3,0.6-0.4
			C159.1,38.5,231.4,36,288,73.7l-12.1,17.6c-3.4,4.9-1.3,8.4,4.6,7.9l52.8-4.7c5.9-0.5,9.5-5.7,7.9-11.4L326.9,32
			c-1.6-5.7-5.6-6.4-9-1.5l-12.2,17.6C264.2,20.2,214.4,9.6,165,18.2c-5,0.9-9.9,1.9-14.7,3.1h-0.1c-0.2,0-0.4,0.1-0.6,0.2
			C107,32.5,69.8,57.3,43.3,92.8c-0.2,0.3-0.5,0.5-0.7,0.8c-0.9,1.2-1.8,2.4-2.6,3.6c-1.4,2-2.8,4-4.1,6.1c-0.2,0.2-0.3,0.5-0.4,0.7
			C13.5,138,3,177.2,4.8,217.1c0,0.1,0,0.3,0,0.4c0.2,3.9,0.5,7.9,0.9,11.7c0,0.3,0.1,0.5,0.1,0.7c0.4,3.9,1,7.8,1.7,11.8
			c6.9,40,25.8,76,54.1,104.1c0.1,0.1,0.1,0.1,0.2,0.2c0,0,0,0,0.1,0.1c7.6,7.5,15.9,14.4,24.8,20.7c23.3,16.4,49.2,27.3,77.1,32.3
			c8.5,1.5,16.5-4.1,18-12.6C183.3,378.1,177.7,370,169.2,368.5L169.2,368.5z"/>
	</g>
	<path class="st0" d="M188.5,83.1c-7,0-12.6,5.6-12.6,12.6V221l114.6,59.3c1.8,1,3.8,1.4,5.8,1.4c4.6,0,9-2.5,11.2-6.8
		c3.2-6.2,0.8-13.8-5.4-17l-101-52.2v-110C201,88.7,195.4,83.1,188.5,83.1L188.5,83.1z"/>
</g>
</svg>
