<?xml version="1.0" encoding="utf-8"?>
<!-- Generator: Adobe Illustrator 23.0.6, SVG Export Plug-In . SVG Version: 6.00 Build 0)  -->
<svg version="1.1" id="Calque_1" xmlns="http://www.w3.org/2000/svg" xmlns:xlink="http://www.w3.org/1999/xlink" x="0px" y="0px"
	 viewBox="0 0 59.8 46.4" style="enable-background:new 0 0 59.8 46.4;" xml:space="preserve">
<style type="text/css">
	.st0{fill:#F6F6F6;}
</style>
<g>
	<path class="st0" d="M42.1,22.8l5.5-0.8c2.6,0,4.9,0.9,7,2.7c2.1,1.8,3.1,4.4,3.1,7.7s-1.1,6.2-3.3,8.4s-5.3,3.4-9.3,3.4
		s-7.2-1.5-9.8-4.6c-2.5-3-3.8-6.5-3.8-10.4c0-5.6,1.8-10.7,5.5-15.4c3.6-4.7,8.9-8.6,15.7-11.6l0.9,2.4c-9.3,5.5-14,10.8-14,15.9
		C39.7,22.1,40.5,22.8,42.1,22.8z"/>
	<path class="st0" d="M12.6,22.8l5.5-0.8c2.6,0,4.9,0.9,7,2.7c2.1,1.8,3.1,4.4,3.1,7.7s-1.1,6.2-3.3,8.4s-5.3,3.4-9.3,3.4
		s-7.2-1.5-9.8-4.6C3.3,36.6,2,33.1,2,29.2c0-5.6,1.8-10.7,5.4-15.4s8.9-8.6,15.7-11.6L24,4.6c-9.3,5.5-14,10.8-14,15.9
		C10.2,22.1,11,22.8,12.6,22.8z"/>
</g>
</svg>
