<?xml version="1.0" encoding="utf-8"?>
<!-- Generator: Adobe Illustrator 23.0.6, SVG Export Plug-In . SVG Version: 6.00 Build 0)  -->
<svg version="1.1" id="Calque_1" xmlns="http://www.w3.org/2000/svg" xmlns:xlink="http://www.w3.org/1999/xlink" x="0px" y="0px"
	 viewBox="0 0 548.1 542.4" style="enable-background:new 0 0 548.1 542.4;" xml:space="preserve">
<style type="text/css">
	.st0{fill:#D4EFDF;}
</style>
<g>
	<path class="st0" d="M273.2,525.6c-141.2,0-256-114.8-256-256s114.8-256,256-256s256,114.8,256,256S414.4,525.6,273.2,525.6
		L273.2,525.6z M273.2,45.6c-123.5,0-224,100.5-224,224s100.5,224,224,224s224-100.5,224-224S396.7,45.6,273.2,45.6L273.2,45.6z"/>
	<path class="st0" d="M385.2,285.6h-224c-8.8,0-16-7.2-16-16s7.2-16,16-16h224c8.8,0,16,7.2,16,16
		C401.2,278.4,394,285.6,385.2,285.6L385.2,285.6z"/>
	<path class="st0" d="M273.2,397.6c-8.8,0-16-7.2-16-16v-224c0-8.8,7.2-16,16-16s16,7.2,16,16v224
		C289.2,390.4,282,397.6,273.2,397.6L273.2,397.6z"/>
</g>
</svg>
